<svg width="79" height="60" viewBox="0 0 79 60" fill="none" xmlns="http://www.w3.org/2000/svg">
<path d="M40.7301 0C44.9055 0.130481 49.3745 1.04385 53.5173 3.13156C56.8446 4.79519 57.3339 7.79627 54.6264 10.308C53.4194 11.4171 52.6365 12.6893 51.8863 14.092C48.4285 20.5182 45.036 26.9444 41.513 33.3054C40.2734 35.5562 39.8167 35.491 38.4793 33.2728C37.8269 32.1637 37.2724 31.022 36.62 29.8803C35.7718 28.3471 35.4456 26.3573 32.7381 28.3797C31.0093 29.6845 28.9542 28.0535 28.7258 25.4765C28.5301 23.0626 28.5627 20.6161 28.6606 18.1695C28.7911 14.9727 27.7798 12.4284 25.3333 10.2102C22.528 7.66579 23.0499 4.79519 26.5403 3.09893C30.9114 0.978611 35.4782 0 40.7301 0Z" fill="#F8333C"/>
<path d="M31.9553 45.6035C34.5649 45.7013 33.521 47.7238 33.782 49.0612C33.8472 49.4853 33.9451 49.9094 34.043 50.3008C34.6301 50.1703 35.0868 49.9093 35.3478 49.3548C35.5435 48.9634 35.4783 48.05 36.2938 48.6698C36.4895 48.8329 36.4242 49.4853 36.3264 49.8441C36.0002 51.1163 35.1194 51.7687 33.8146 51.7687C33.2601 51.7687 32.6729 51.6056 32.1184 51.6056C28.0734 51.6382 28.0734 51.6709 27.3232 55.5853C27.1275 56.5639 26.8665 57.5425 26.4424 58.4233C26.1488 59.0757 25.4312 59.4997 24.6483 59.304C23.9307 59.1409 23.4087 58.5538 23.2782 57.8035C23.0825 56.6618 23.1478 55.5201 23.9307 54.5414C24.3873 53.9869 25.2028 53.0083 25.0724 52.8452C23.1804 50.5618 24.5831 48.8655 25.8879 47.0714C26.2793 46.5168 26.051 45.5056 25.366 45.1794C24.6157 44.8206 24.0938 45.5709 23.6697 46.1254C23.4087 46.4516 23.3109 46.9083 23.1151 47.2997C22.3323 47.3323 21.9408 47.104 22.3649 46.2559C23.7676 43.7767 24.8766 43.1896 26.4098 44.1029C27.8777 44.9511 28.0408 46.4516 26.8991 48.5393C26.7034 48.8981 26.3119 49.1917 26.1162 49.5505C25.9205 49.9094 25.8879 50.3334 26.3446 50.6596C26.9644 51.1163 27.3558 50.7249 27.7472 50.3008C28.4649 49.4853 28.3344 48.4414 28.5627 47.4955C28.9216 45.8644 29.8676 44.6575 31.4333 44.0703C32.0857 43.8094 33.097 43.2222 33.4232 44.4291C33.4884 44.6901 32.5098 45.2773 31.9879 45.7013C31.5638 46.0602 31.3681 46.5495 31.2376 47.0714C31.466 46.5821 31.629 46.0601 31.9553 45.6035Z" fill="#F8333C"/>
<path d="M44.1226 45.5383C44.1226 44.103 44.1226 42.6677 44.1226 41.265C44.1226 40.7105 44.1879 39.9602 43.6007 39.7971C42.8178 39.5687 42.198 40.1885 41.9044 40.8083C41.1868 42.4067 40.9584 44.103 42.1001 45.6687C42.5242 46.2233 42.3611 46.7778 41.8066 47.0062C41.5782 47.1041 40.991 46.7452 40.7301 46.4516C38.8707 44.2335 39.3274 40.6126 41.6435 38.8185C42.7199 38.003 43.9921 37.4158 45.2317 37.9703C46.2756 38.4597 45.721 39.7645 45.7862 40.7104C45.8515 41.7217 45.7536 42.7003 45.8189 43.7115C45.8515 44.1682 45.4926 44.9511 46.3408 44.9837C46.9606 45.0163 47.3194 44.4618 47.6456 44.0051C48.2654 43.1244 48.298 42.1458 48.298 41.1345C48.298 39.8297 48.6568 38.5901 49.2766 37.4484C49.5049 37.0244 49.929 36.8939 50.3205 37.057C50.7445 37.2527 50.7771 37.6115 50.5814 38.0682C49.5376 40.5147 50.3205 43.5484 48.0697 45.6035C47.4173 46.2233 48.1023 46.6474 48.3633 46.9736C49.7007 48.7024 49.9616 50.9206 51.0381 52.78C51.2991 53.2367 51.6905 53.7912 50.9076 54.1174C50.2226 54.3784 49.8312 53.8565 49.5376 53.3998C48.4285 51.7361 48.4937 49.5506 47.1889 47.9522C47.0258 47.7564 46.7322 47.5934 46.4713 47.5281C45.7862 47.3324 45.8515 47.9848 45.8189 48.311C45.721 48.8656 45.8515 49.4527 45.7536 50.0072C45.6558 50.5944 46.0472 51.6383 44.9055 51.4752C44.0248 51.3447 44.1226 50.4313 44.1226 49.7463C44.1552 48.4089 44.1552 46.9736 44.1226 45.5383C44.1552 45.5383 44.1552 45.5383 44.1226 45.5383Z" fill="#F8333C"/>
<path d="M66.2718 50.692C67.9028 49.2241 68.0659 47.2669 68.0333 45.2444C68.0333 44.853 68.2943 44.1353 68.4248 44.1353C69.0445 44.1679 69.4033 44.6899 69.4686 45.2444C69.5991 46.0925 69.5991 46.9407 69.6317 47.7888C69.6643 48.4738 69.5012 49.6482 70.0558 49.7134C70.8713 49.8113 70.6103 48.7022 70.806 48.0824C71.2953 46.4188 72.013 44.853 73.7418 44.1353C74.3616 43.8744 75.3729 43.222 75.6991 44.4289C75.7643 44.6899 74.7205 45.2444 74.1985 45.6685C73.8723 45.9621 73.7092 46.3535 73.5461 46.7449C73.7745 46.3861 73.8724 45.9621 74.1007 45.6032C76.2536 45.277 75.8948 46.8102 75.96 48.0498C76.0253 49.8765 76.1232 51.5075 77.8847 48.7674C78.0151 48.5717 78.374 48.4086 78.5697 48.4412C79.0264 48.5717 79.0916 48.9305 78.8959 49.3872C78.3413 50.8225 77.6237 51.9642 75.8296 51.7359C75.275 51.6706 74.6879 51.638 74.1333 51.638C70.2515 51.7359 70.2515 51.7359 69.5991 55.8134C69.5338 56.2375 69.3707 56.6289 69.2729 57.053C68.9793 58.3904 68.49 59.7279 66.7937 59.1407C65.2606 58.6188 65.3584 57.1509 65.6194 55.846C65.8478 54.7043 66.859 53.9867 67.5766 53.1059C68.1312 52.4535 68.0007 51.8337 67.2178 51.377C66.8916 51.2792 66.4023 51.2466 66.2718 50.692Z" fill="#F8333C"/>
<path d="M66.272 50.6918C66.5982 50.9202 66.957 51.1811 67.2832 51.4095C66.8591 51.5073 66.4677 51.703 66.0436 51.703C61.542 51.703 61.542 51.6704 61.0853 47.0709C61.0201 46.549 61.1832 45.864 60.4655 45.6683C59.7479 45.4726 59.4869 46.125 59.2586 46.6143C58.9976 47.1036 58.9324 47.6907 58.7366 48.2127C58.3126 49.3218 59.8131 51.3768 57.4318 51.5073C55.5725 51.6052 53.3869 52.649 51.919 50.4635C50.7447 48.702 50.8099 46.9731 51.8864 45.2442C52.6366 44.0373 53.7131 43.2218 55.0832 44.1677C56.2249 44.918 56.1596 46.0923 55.4746 47.2014C55.181 47.6907 54.8548 48.1474 54.5286 48.6041C54.1698 49.0934 53.0933 49.387 53.9088 50.2351C54.7244 51.0506 55.5073 50.3982 56.1597 49.8763C57.4645 48.7998 57.1383 47.2341 57.0404 45.864C56.7794 42.6346 59.4217 44.8854 60.5308 44.0373C61.7051 43.1565 62.3249 44.7223 62.3249 45.9945C62.3249 46.4185 62.2923 46.8752 62.3249 47.2667C62.4554 48.1801 61.8682 49.7132 63.0099 49.8111C64.4126 49.9415 63.6297 48.3105 63.9233 47.495C63.9885 47.3645 63.9233 47.2014 63.9559 47.0709C64.2821 46.0271 64.4126 44.1351 65.3586 44.2982C66.8917 44.5918 65.4564 46.0923 65.5543 47.0709C65.7174 48.3105 65.0976 49.6806 66.272 50.6918Z" fill="#F8333C"/>
<path d="M22.4628 46.3207C22.528 46.7774 22.7238 47.1688 23.2131 47.3646C22.8542 48.5715 22.8216 49.9416 21.9409 50.9528C20.5382 52.5512 19.9184 54.2475 20.0815 56.4004C20.1794 57.7052 19.6248 58.9448 18.1569 59.4015C17.5697 59.5646 17.0804 59.271 16.689 58.7817C15.743 57.5747 16.004 56.3026 16.6564 55.1608C17.5045 53.6603 19.4291 52.3555 16.8521 50.6592C16.1671 50.2025 17.0152 49.6806 17.4067 49.387C18.1243 48.8651 18.7441 48.2779 18.9724 47.4298C19.2008 46.6143 19.3639 45.6031 18.32 45.2442C17.5045 44.9507 17.0152 45.7336 16.7542 46.3533C16.2649 47.5277 16.004 48.7999 15.5147 49.9742C15.058 51.0833 14.3403 51.964 12.9377 51.8009C11.3719 51.6378 11.3066 50.4635 11.3066 49.2892C11.3066 47.8539 11.3067 46.4186 11.3393 44.9833C11.3393 44.5918 11.4698 44.1678 11.9917 44.1025C12.5462 44.0373 12.8398 44.494 12.8724 44.8528C12.9703 46.2881 12.9377 47.7234 13.0355 49.1261C13.0681 49.5175 13.2965 50.2352 13.3944 50.2352C14.0141 50.1699 14.4708 49.7459 14.5687 49.1587C14.797 47.8865 14.9928 46.6469 15.5799 45.4726C16.3628 43.9394 17.635 43.4827 19.1682 43.972C20.6687 44.4613 21.0928 46.125 20.473 47.9191C20.1468 48.8651 18.0591 49.8111 19.5596 50.594C21.0275 51.3443 21.3211 49.3544 21.6473 48.2127C21.843 47.5277 21.8104 46.81 22.4628 46.3207Z" fill="#F8333C"/>
<path d="M8.79478 42.8959C8.86003 40.743 8.14239 39.7318 6.38089 39.4708C4.32581 39.1772 2.4012 40.1558 1.9119 41.8847C1.52045 43.2874 1.48784 44.6901 2.30335 46.0275C2.43383 46.2559 2.23811 46.8756 1.97714 47.1366C1.65094 47.4628 1.19425 47.2345 0.933287 46.8756C-0.567249 44.9184 -0.208421 41.2323 1.65094 39.3729C3.57554 37.4483 7.1964 37.22 9.05576 38.9163C10.8825 40.5473 11.1108 43.6462 9.44719 45.9623C8.89265 46.7452 8.07714 47.3975 7.32687 48.05C6.80494 48.5066 6.08731 48.735 5.56538 49.1917C4.84773 49.8115 5.72847 51.7687 4.39104 51.5077C2.69478 51.1815 3.6734 49.3874 3.60816 48.2457C3.44506 45.9623 3.54291 43.6788 3.57553 41.3954C3.57553 41.0366 3.6734 40.5799 4.26057 40.5799C4.81511 40.5799 5.1087 41.004 5.14132 41.3628C5.2718 42.5045 5.17393 43.6462 5.27179 44.7879C5.33703 45.5708 4.81511 46.7125 5.82634 46.9735C6.60923 47.1692 7.32687 46.3537 7.88142 45.6361C8.50121 44.7879 8.89265 43.9072 8.79478 42.8959Z" fill="#F8333C"/>
<path d="M12.7092 41.9827C11.9916 42.1132 11.5675 41.8196 11.4044 41.2324C11.1761 40.4496 11.437 39.8624 12.2852 39.6993C12.9049 39.5688 13.329 39.9603 13.5574 40.5148C13.9488 41.3955 13.1985 41.6565 12.7092 41.9827Z" fill="#F8333C"/>
<path d="M43.7313 20.714C41.8067 20.4857 40.404 21.2033 39.4906 22.9322C38.5772 24.6937 39.0013 26.2269 40.3061 27.5969C40.8607 28.1515 41.8067 28.6408 41.1543 29.7172C40.8607 30.2065 40.4692 30.6306 40.143 31.0547C39.8168 30.7937 39.3602 30.5654 39.1971 30.2392C37.827 27.7274 36.5222 25.2156 35.1847 22.7039C34.9238 22.1819 34.5323 21.66 33.9125 21.6926C32.9992 21.7579 33.0318 22.5734 32.8687 23.291C32.6077 24.4001 33.6516 26.4552 31.8575 26.4226C30.3569 26.39 30.9441 24.4001 30.8462 23.2258C30.5527 19.4418 31.6944 15.4621 29.4436 11.9065C29.2478 11.5803 29.3457 11.091 29.7371 10.7648C30.2917 10.2755 30.7484 10.4712 31.1724 10.9279C31.3682 11.1236 31.466 11.4498 31.6617 11.6129C34.6628 14.2878 37.4029 13.668 38.8382 9.88407C39.1644 9.03594 39.1971 8.1878 40.3714 8.31829C41.3174 8.41615 42.72 8.05733 43.0462 9.10118C43.5029 10.5691 43.8944 11.8087 45.5906 12.1349C47.0259 12.3958 48.0372 11.7108 49.0158 10.7648C49.4398 10.3734 50.027 10.2755 50.5163 10.7974C51.0382 11.3194 50.8099 11.8087 50.5163 12.3306C49.2115 14.7119 47.9393 17.0932 46.6345 19.4745C45.8516 20.7793 45.819 20.7466 43.7313 20.714Z" fill="white"/>
<path d="M54.3655 6.94823C54.3002 8.0247 53.6804 8.77497 52.5387 8.84021C51.2339 8.90545 50.027 8.57925 49.2115 7.30706C47.9719 5.2846 47.6457 6.5894 47.3847 7.8616C47.3195 8.12256 47.4173 8.44877 47.3195 8.70973C47.1237 9.39476 46.8628 10.2103 46.0146 10.0472C45.2318 9.88406 45.0686 9.06855 45.036 8.31828C45.0034 7.47015 45.036 6.5894 45.0034 5.74127C44.9708 5.18673 44.873 4.53432 44.2532 4.40384C43.5681 4.27336 43.3398 4.76266 43.1115 5.38245C42.72 6.45892 41.7414 6.16535 40.9259 6.16535C37.1419 6.06748 33.5537 6.91561 30.0307 8.22042C29.5088 8.41615 28.9542 8.64449 28.4323 8.77497C27.3884 9.00332 26.3772 8.90545 25.9858 7.6985C25.6595 6.65464 25.8227 5.67604 26.997 5.18673C28.9868 4.40385 30.944 3.39261 32.9991 2.96854C39.4253 1.63111 45.8189 1.82683 51.919 4.63218C52.9302 5.08887 54.1698 5.41508 54.3655 6.94823Z" fill="white"/>
<path d="M44.2206 23.8784C43.7965 24.8571 43.5682 26.1619 42.4591 26.4228C41.5131 26.6186 41.0564 25.4116 41.089 24.694C41.1543 23.4544 42.0677 22.7367 43.3398 22.7041C43.9596 22.6715 44.1227 23.2913 44.2206 23.8784Z" fill="white"/>
<path d="M34.9562 11.2213C33.8471 11.2213 32.9011 10.5363 33.0969 9.85124C33.4557 8.64429 34.8258 8.64429 35.9349 8.64429C36.4568 8.64429 37.1744 8.80739 36.9135 9.55766C36.6199 10.5363 36.0327 11.3192 34.9562 11.2213Z" fill="white"/>
<path d="M31.9552 45.603C31.9552 46.9731 31.9878 48.3758 31.9226 49.7458C31.89 50.1046 31.5964 50.5287 31.0745 50.4635C30.5852 50.4308 30.3568 50.072 30.2916 49.6806C30.1611 48.0496 29.737 46.2555 32.0204 45.7009L31.9552 45.603Z" fill="white"/>
<path d="M25.8878 56.0415C25.9204 56.7918 25.8226 57.3463 25.2028 57.5421C24.6809 57.7052 24.4199 57.2811 24.3873 56.9223C24.322 56.172 24.6482 55.5196 25.4311 55.3891C25.9204 55.3239 25.8878 55.8784 25.8878 56.0415Z" fill="white"/>
<path d="M74.1334 45.603C74.6227 46.81 74.5574 48.0496 74.427 49.2891C74.3943 49.7784 74.166 50.3982 73.5136 50.4961C72.7959 50.5613 72.5676 49.9742 72.535 49.4196C72.3719 47.8538 72.4371 46.3533 74.2312 45.6683L74.1334 45.603Z" fill="white"/>
<path d="M67.4787 57.6401C66.9567 57.477 66.6305 57.2813 66.6958 56.792C66.7936 56.0743 67.1851 55.585 67.9027 55.3567C68.0006 55.7481 68.1637 56.107 68.1637 56.4984C68.1311 57.0203 68.0985 57.5749 67.4787 57.6401Z" fill="white"/>
<path d="M53.8433 45.179C54.0064 45.3421 54.2674 45.4725 54.3327 45.6356C54.561 46.5816 54.1043 47.2993 53.4193 47.8212C52.7017 48.3431 52.7995 47.5276 52.7669 47.2993C52.6038 46.3533 52.93 45.6356 53.8433 45.179Z" fill="white"/>
<path d="M17.8633 57.6728C17.2109 57.1509 17.2435 56.4007 17.5371 55.7809C17.7654 55.3242 18.2873 54.998 18.6788 54.6392C19.2007 55.2589 19.005 55.944 18.9397 56.629C18.8745 57.314 18.4504 57.575 17.8633 57.6728Z" fill="white"/>
<path d="M40.9585 16.5389C41.1216 18.0068 39.6863 19.5725 38.1206 19.6378C36.6526 19.703 34.8911 18.1699 34.989 16.7346C35.0216 16.0822 35.8371 15.0383 36.359 15.7886C37.7291 17.7132 38.5772 16.9955 39.7842 15.7233C40.1756 15.2667 40.7628 15.8864 40.9585 16.5389Z" fill="#F8333C"/>
<path d="M43.2744 15.4948C43.2744 15.0055 43.568 14.7446 43.9594 14.6793C44.6445 14.6141 44.938 15.0708 44.8402 15.6579C44.7749 16.0167 44.4814 16.3756 43.9594 16.2777C43.568 16.2125 43.2744 15.9841 43.2744 15.4948Z" fill="#F8333C"/>
</svg>
