<svg width="53" height="53" viewBox="0 0 53 53" fill="none" xmlns="http://www.w3.org/2000/svg">
<path fill-rule="evenodd" clip-rule="evenodd" d="M26.9015 39.5585C29.3306 38.3627 41.9583 31.5829 41.9583 19.8748C41.9583 11.3374 35.0374 4.4165 26.5 4.4165C17.9626 4.4165 11.0416 11.3374 11.0416 19.8748C11.0416 31.5829 23.6693 38.3627 26.0984 39.5585C26.354 39.6844 26.6459 39.6844 26.9015 39.5585ZM26.5 26.4998C30.1588 26.4998 33.125 23.5337 33.125 19.8748C33.125 16.216 30.1588 13.2498 26.5 13.2498C22.8411 13.2498 19.875 16.216 19.875 19.8748C19.875 23.5337 22.8411 26.4998 26.5 26.4998Z" fill="#F8333C"/>
<path d="M39.8873 36.4375C41.244 37.4446 41.9583 38.5871 41.9583 39.75C41.9583 40.9129 41.244 42.0554 39.8873 43.0625C38.5305 44.0696 36.5791 44.906 34.2291 45.4874C31.8792 46.0689 29.2135 46.375 26.5 46.375C23.7865 46.375 21.1208 46.0689 18.7708 45.4874C16.4208 44.906 14.4694 44.0696 13.1127 43.0625C11.7559 42.0554 11.0416 40.9129 11.0416 39.75C11.0416 38.5871 11.7559 37.4446 13.1126 36.4375" stroke="#F8333C" stroke-width="4" stroke-linecap="round"/>
</svg>
