<svg width="179" height="220" viewBox="0 0 179 220" fill="none" xmlns="http://www.w3.org/2000/svg">
<path d="M177.576 211.856C178.594 211.427 179.071 210.254 178.642 209.237C178.213 208.219 177.04 207.741 176.022 208.171L177.576 211.856ZM18.8227 143.867L20.5302 142.826L18.8227 143.867ZM49.5288 0.320873C48.4341 0.173112 47.427 0.940708 47.2792 2.03535L44.8713 19.8736C44.7235 20.9682 45.4911 21.9754 46.5858 22.1231C47.6804 22.2709 48.6876 21.5033 48.8353 20.4087L50.9757 4.55247L66.8319 6.69285C67.9266 6.84061 68.9337 6.07301 69.0815 4.97837C69.2292 3.88373 68.4617 2.87656 67.367 2.7288L49.5288 0.320873ZM50.5398 7.46344C51.1668 8.37279 52.4123 8.60164 53.3216 7.97461C54.231 7.34758 54.4598 6.1021 53.8328 5.19276L50.5398 7.46344ZM58.9103 13.6371C58.4132 12.6506 57.2107 12.2539 56.2242 12.7509C55.2378 13.2479 54.8411 14.4505 55.3381 15.4369L58.9103 13.6371ZM58.5021 24.0311C58.7308 25.1117 59.7923 25.8023 60.8729 25.5736C61.9536 25.3448 62.6441 24.2834 62.4154 23.2028L58.5021 24.0311ZM62.333 33.7184C62.6102 32.6492 61.9681 31.5577 60.8989 31.2806C59.8297 31.0034 58.7382 31.6454 58.461 32.7147L62.333 33.7184ZM54.2805 40.3281C53.5581 41.1637 53.6499 42.4267 54.4855 43.1491C55.3211 43.8715 56.5841 43.7797 57.3065 42.944L54.2805 40.3281ZM49.7397 49.6651C50.6347 49.0177 50.8354 47.7674 50.1881 46.8724C49.5408 45.9774 48.2904 45.7767 47.3954 46.424L49.7397 49.6651ZM39.4049 51.5941C38.4573 52.1617 38.1493 53.39 38.7169 54.3376C39.2845 55.2852 40.5128 55.5932 41.4603 55.0256L39.4049 51.5941ZM33.0906 59.9471C34.0411 59.3844 34.3555 58.1577 33.7928 57.2072C33.2301 56.2567 32.0034 55.9423 31.0529 56.505L33.0906 59.9471ZM22.7305 61.7024C21.814 62.319 21.5709 63.5617 22.1874 64.4782C22.804 65.3947 24.0468 65.6378 24.9633 65.0213L22.7305 61.7024ZM17.4404 70.7203C18.2729 69.9944 18.3594 68.731 17.6335 67.8985C16.9076 67.0659 15.6443 66.9794 14.8117 67.7053L17.4404 70.7203ZM7.88282 75.0217C7.21487 75.9014 7.38655 77.156 8.26628 77.824C9.146 78.4919 10.4006 78.3203 11.0686 77.4405L7.88282 75.0217ZM6.57018 85.3509C6.97658 84.3238 6.4734 83.1617 5.44631 82.7553C4.41922 82.3489 3.25715 82.8521 2.85076 83.8792L6.57018 85.3509ZM0.472245 93.7858C0.361739 94.8848 1.1631 95.8653 2.26212 95.9758C3.36115 96.0863 4.34167 95.2849 4.45218 94.1859L0.472245 93.7858ZM4.60343 103.47C4.47062 102.373 3.47402 101.592 2.37747 101.725C1.28091 101.857 0.49964 102.854 0.63245 103.951L4.60343 103.47ZM2.61564 113.638C2.91501 114.701 4.01961 115.32 5.08284 115.021C6.14607 114.722 6.76529 113.617 6.46592 112.554L2.61564 113.638ZM9.54817 121.486C9.13463 120.462 7.96908 119.967 6.94485 120.381C5.92061 120.794 5.42554 121.96 5.83908 122.984L9.54817 121.486ZM9.89785 131.945C10.3911 132.933 11.5922 133.334 12.5805 132.841C13.5688 132.348 13.9701 131.147 13.4769 130.158L9.89785 131.945ZM18.0038 138.565C17.4527 137.608 16.2299 137.278 15.2727 137.829C14.3154 138.381 13.9861 139.603 14.5371 140.561L18.0038 138.565ZM19.9175 149.381C20.5154 150.31 21.753 150.578 22.6818 149.981C23.6106 149.383 23.8788 148.145 23.281 147.216L19.9175 149.381ZM29.0481 155.696C28.4034 154.799 27.1536 154.595 26.2568 155.239C25.3599 155.884 25.1555 157.134 25.8003 158.031L29.0481 155.696ZM32.1327 166.348C32.8263 167.208 34.0854 167.342 34.9451 166.649C35.8047 165.955 35.9393 164.696 35.2457 163.836L32.1327 166.348ZM41.9295 171.632C41.1852 170.816 39.9202 170.758 39.1041 171.502C38.2879 172.246 38.2296 173.511 38.9739 174.327L41.9295 171.632ZM46.2968 181.857C47.0925 182.623 48.3586 182.599 49.1247 181.804C49.8909 181.008 49.8669 179.742 49.0712 178.976L46.2968 181.857ZM56.6573 185.794C55.8104 185.085 54.549 185.197 53.8399 186.044C53.1307 186.89 53.2423 188.152 54.0892 188.861L56.6573 185.794ZM62.4135 195.328C63.3105 195.973 64.5602 195.768 65.2048 194.871C65.8494 193.974 65.6449 192.724 64.7479 192.08L62.4135 195.328ZM73.2458 197.705C72.3016 197.131 71.0715 197.432 70.4982 198.376C69.9249 199.32 70.2256 200.551 71.1697 201.124L73.2458 197.705ZM80.3959 206.23C81.3833 206.725 82.5851 206.326 83.0803 205.339C83.5754 204.352 83.1764 203.15 82.1891 202.655L80.3959 206.23ZM91.4878 206.846C90.4628 206.435 89.2982 206.932 88.8866 207.957C88.4749 208.982 88.9722 210.147 89.9972 210.558L91.4878 206.846ZM99.9214 214.067C100.977 214.39 102.096 213.797 102.42 212.741C102.744 211.685 102.15 210.566 101.094 210.242L99.9214 214.067ZM110.959 212.815C109.88 212.582 108.815 213.268 108.582 214.348C108.349 215.428 109.036 216.492 110.115 216.725L110.959 212.815ZM120.505 218.509C121.6 218.65 122.603 217.875 122.743 216.78C122.883 215.684 122.109 214.682 121.014 214.542L120.505 218.509ZM131.174 215.408C130.07 215.361 129.138 216.217 129.091 217.321C129.044 218.424 129.9 219.357 131.004 219.404L131.174 215.408ZM141.536 219.403C142.639 219.356 143.496 218.423 143.448 217.319C143.401 216.216 142.468 215.359 141.364 215.407L141.536 219.403ZM151.531 214.525C150.436 214.669 149.665 215.674 149.809 216.769C149.952 217.864 150.957 218.635 152.052 218.491L151.531 214.525ZM162.445 216.635C163.522 216.39 164.196 215.318 163.951 214.241C163.705 213.164 162.633 212.49 161.556 212.735L162.445 216.635ZM171.326 209.963C170.282 210.324 169.728 211.463 170.089 212.507C170.449 213.551 171.588 214.105 172.632 213.744L171.326 209.963ZM47.6706 3.51522C48.7059 4.87371 49.6611 6.18914 50.5398 7.46344L53.8328 5.19276C52.9155 3.86243 51.9228 2.49566 50.8519 1.09058L47.6706 3.51522ZM55.3381 15.4369C56.9406 18.6173 57.959 21.465 58.5021 24.0311L62.4154 23.2028C61.7873 20.2355 60.6354 17.0608 58.9103 13.6371L55.3381 15.4369ZM58.461 32.7147C57.7416 35.4898 56.3064 37.9846 54.2805 40.3281L57.3065 42.944C59.6447 40.2394 61.4282 37.209 62.333 33.7184L58.461 32.7147ZM47.3954 46.424C44.9606 48.1851 42.264 49.8814 39.4049 51.5941L41.4603 55.0256C44.3568 53.2906 47.1671 51.5258 49.7397 49.6651L47.3954 46.424ZM31.0529 56.505C28.2709 58.152 25.4585 59.8671 22.7305 61.7024L24.9633 65.0213C27.5976 63.249 30.3342 61.5789 33.0906 59.9471L31.0529 56.505ZM14.8117 67.7053C12.2753 69.9168 9.92392 72.3334 7.88282 75.0217L11.0686 77.4405C12.9139 75.0101 15.067 72.7896 17.4404 70.7203L14.8117 67.7053ZM2.85076 83.8792C1.65409 86.9036 0.83365 90.1914 0.472245 93.7858L4.45218 94.1859C4.77698 90.9556 5.51065 88.0287 6.57018 85.3509L2.85076 83.8792ZM0.63245 103.951C1.00131 106.996 1.65305 110.219 2.61564 113.638L6.46592 112.554C5.5533 109.313 4.9452 106.291 4.60343 103.47L0.63245 103.951ZM5.83908 122.984C6.99391 125.844 8.34248 128.828 9.89785 131.945L13.4769 130.158C11.9644 127.128 10.66 124.24 9.54817 121.486L5.83908 122.984ZM14.5371 140.561C15.3567 141.984 16.2157 143.433 17.1151 144.908L20.5302 142.826C19.6477 141.378 18.8059 139.958 18.0038 138.565L14.5371 140.561ZM17.1151 144.908C18.0416 146.428 18.9759 147.919 19.9175 149.381L23.281 147.216C22.357 145.781 21.44 144.318 20.5302 142.826L17.1151 144.908ZM25.8003 158.031C27.8818 160.926 29.9939 163.697 32.1327 166.348L35.2457 163.836C33.1542 161.244 31.0871 158.532 29.0481 155.696L25.8003 158.031ZM38.9739 174.327C41.389 176.976 43.8317 179.484 46.2968 181.857L49.0712 178.976C46.6692 176.663 44.2869 174.217 41.9295 171.632L38.9739 174.327ZM54.0892 188.861C56.8458 191.169 59.6229 193.322 62.4135 195.328L64.7479 192.08C62.0377 190.132 59.3386 188.04 56.6573 185.794L54.0892 188.861ZM71.1697 201.124C74.2409 202.989 77.3192 204.687 80.3959 206.23L82.1891 202.655C79.2083 201.16 76.2243 199.513 73.2458 197.705L71.1697 201.124ZM89.9972 210.558C93.3227 211.894 96.6346 213.059 99.9214 214.067L101.094 210.242C97.9132 209.267 94.7074 208.139 91.4878 206.846L89.9972 210.558ZM110.115 216.725C113.628 217.483 117.096 218.072 120.505 218.509L121.014 214.542C117.715 214.119 114.358 213.549 110.959 212.815L110.115 216.725ZM131.004 219.404C134.612 219.558 138.129 219.549 141.536 219.403L141.364 215.407C138.069 215.548 134.666 215.556 131.174 215.408L131.004 219.404ZM152.052 218.491C155.702 218.011 159.177 217.381 162.445 216.635L161.556 212.735C158.409 213.453 155.057 214.062 151.531 214.525L152.052 218.491ZM172.632 213.744C174.376 213.142 176.027 212.509 177.576 211.856L176.022 208.171C174.558 208.788 172.99 209.388 171.326 209.963L172.632 213.744Z" fill="black"/>
</svg>
